<svg xmlns="http://www.w3.org/2000/svg" viewBox="0 0 144 40">
    <defs>
        <style>
            .cls-1{fill:none}.cls-2{fill:#131f3e}.cls-3{fill:#f54703}.cls-4{fill:url(#linear-gradient)}
        </style>
        <linearGradient id="linear-gradient" x1=".276" x2=".725" y1=".946" y2=".053" gradientUnits="objectBoundingBox">
            <stop offset=".003" stop-color="#f54703"/>
            <stop offset="1" stop-color="#fac902"/>
        </linearGradient>
    </defs>
    <g id="logotype" transform="translate(-48 -16)">
        <path id="Rectangle_134" d="M0 0h144v40H0z" class="cls-1" data-name="Rectangle 134" transform="translate(48 16)"/>
        <g id="Group_11" data-name="Group 11" transform="translate(84.23 29.568)">
            <g id="Group_2" data-name="Group 2" transform="translate(0 .233)">
                <path id="Path_1" d="M434.549 141.9a1.315 1.315 0 0 1-1.349-1.374v-9.754a1.33 1.33 0 0 1 1.374-1.374h3.365c2.79 0 4.665 1.649 4.665 4.115 0 2.432-1.916 4.132-4.665 4.132H435.9v2.882a1.32 1.32 0 0 1-1.351 1.373zm1.349-6.522h2.057a1.85 1.85 0 1 0 0-3.7H435.9z" class="cls-2" data-name="Path 1" transform="translate(-433.2 -129.4)"/>
            </g>
            <g id="Group_3" data-name="Group 3" transform="translate(12.361 .233)">
                <path id="Path_2" d="M590.171 141.9a1.394 1.394 0 0 1-1.233-.691l-2.374-3.557H584.3v2.874a1.35 1.35 0 1 1-2.7 0v-9.754a1.33 1.33 0 0 1 1.374-1.374h3.365c2.791 0 4.665 1.649 4.665 4.09a3.915 3.915 0 0 1-1.608 3.24l-.266.192 1.891 2.674a1.938 1.938 0 0 1 .408 1.1 1.258 1.258 0 0 1-1.258 1.206zm-5.872-6.522h2.057a1.85 1.85 0 1 0 0-3.7H584.3z" class="cls-2" data-name="Path 2" transform="translate(-581.6 -129.4)"/>
            </g>
            <g id="Group_4" data-name="Group 4" transform="translate(24.656 .008)">
                <path id="Path_3" d="M735.822 139.428a6.371 6.371 0 1 1 6.664-6.364 6.429 6.429 0 0 1-6.664 6.364zm.017-10.3a3.941 3.941 0 1 0 3.857 3.94 3.726 3.726 0 0 0-3.857-3.944z" class="cls-2" data-name="Path 3" transform="translate(-729.2 -126.7)"/>
            </g>
            <g id="Group_5" data-name="Group 5" transform="translate(39.525 .242)">
                <path id="Path_4" d="M913.123 141.995a1.315 1.315 0 0 1-1.349-1.374v-8.755h-2.857a1.167 1.167 0 0 1-1.216-1.191 1.153 1.153 0 0 1 1.216-1.175h8.421a1.183 1.183 0 1 1 0 2.366h-2.858v8.755a1.326 1.326 0 0 1-1.357 1.374z" class="cls-2" data-name="Path 4" transform="translate(-907.7 -129.5)"/>
            </g>
            <g id="Group_6" data-name="Group 6" transform="translate(51.961 .008)">
                <path id="Path_5" d="M1063.622 139.428a6.371 6.371 0 1 1 6.664-6.364 6.429 6.429 0 0 1-6.664 6.364zm.017-10.3a3.941 3.941 0 1 0 3.857 3.94 3.726 3.726 0 0 0-3.857-3.944z" class="cls-2" data-name="Path 5" transform="translate(-1057 -126.7)"/>
            </g>
            <g id="Group_7" data-name="Group 7" transform="translate(68.304 .233)">
                <path id="Path_6" d="M1254.549 141.9a1.3 1.3 0 0 1-1.349-1.374v-9.754a1.33 1.33 0 0 1 1.374-1.374h5.723a1.183 1.183 0 1 1 0 2.366h-4.39v3.136h3.365a1.183 1.183 0 1 1 0 2.366h-3.365v3.249a1.322 1.322 0 0 1-1.358 1.385z" class="cls-2" data-name="Path 6" transform="translate(-1253.2 -129.4)"/>
            </g>
            <g id="Group_8" data-name="Group 8" transform="translate(79.391)">
                <path id="Path_7" d="M1387.649 139.336a1.3 1.3 0 0 1-1.349-1.374v-9.987a1.35 1.35 0 1 1 2.7 0v9.987a1.306 1.306 0 0 1-1.351 1.374z" class="cls-2" data-name="Path 7" transform="translate(-1386.3 -126.6)"/>
            </g>
            <g id="Group_9" data-name="Group 9" transform="translate(85.788 .233)">
                <path id="Path_8" d="M1471.68 141.9a1.394 1.394 0 0 1-1.233-.691l-2.374-3.557h-2.273v2.874a1.35 1.35 0 1 1-2.7 0v-9.754a1.33 1.33 0 0 1 1.374-1.374h3.365c2.791 0 4.665 1.649 4.665 4.09a3.914 3.914 0 0 1-1.608 3.24l-.266.192 1.891 2.674a1.938 1.938 0 0 1 .408 1.1 1.251 1.251 0 0 1-1.249 1.206zm-5.873-6.522h2.058a1.85 1.85 0 1 0 0-3.7h-2.058z" class="cls-2" data-name="Path 8" transform="translate(-1463.1 -129.4)"/>
            </g>
            <g id="Group_10" data-name="Group 10" transform="translate(99.033 .233)">
                <path id="Path_9" d="M1623.474 141.661a1.33 1.33 0 0 1-1.374-1.374v-9.513a1.33 1.33 0 0 1 1.374-1.374h5.914a1.183 1.183 0 1 1 0 2.366h-4.581v2.449h3.04a1.075 1.075 0 1 1 0 2.149h-3.04v2.915h4.815a1.183 1.183 0 1 1 0 2.366h-6.147z" class="cls-2" data-name="Path 9" transform="translate(-1622.1 -129.4)"/>
            </g>
        </g>
        <circle id="Ellipse_1" cx="4.207" cy="4.207" r="4.207" class="cls-3" data-name="Ellipse 1" transform="rotate(-90.097 50.517 2.587)"/>
        <path id="Path_10" d="M1.917 6.8a12.821 12.821 0 0 0 2.541 15.221A1.159 1.159 0 0 0 6.074 22a6.1 6.1 0 0 0 1.174-1.62 6.269 6.269 0 0 0 .225-5.206v-.008a6.316 6.316 0 1 1 7.272 3.682l-.008.008a6.3 6.3 0 0 0-4.065 3.257 6.236 6.236 0 0 0-.608 1.9 1.169 1.169 0 0 0 .941 1.316 12.831 12.831 0 0 0 8.013-24.108A13.032 13.032 0 0 0 1.917 6.8z" class="cls-4" data-name="Path 10" transform="translate(47.577 19.067)"/>
    </g>
</svg>
