<svg xmlns="http://www.w3.org/2000/svg" width="25.676" height="26" viewBox="0 0 25.676 26">
    <defs>
        <style>
            .cls-1{fill:#888;fill-rule:evenodd}
        </style>
    </defs>
    <g id="gnosis_safe_logo" transform="translate(0 -.38)">
        <g id="_0.-Post-install" data-name="0.-Post-install" transform="translate(0 .38)">
            <g id="_logo" data-name="#logo">
                <g id="gnosis_safe_logo_2018">
                    <g id="Group_1" data-name="Group 1">
                        <path id="Fill-1" d="M4.091 89.338A2.2 2.2 0 0 0 3.513 89a6.1 6.1 0 0 0-.78-.256 17.03 17.03 0 0 1-.615-.171 1.747 1.747 0 0 1-.384-.156.48.48 0 0 1-.194-.183.506.506 0 0 1-.054-.241v-.016a.431.431 0 0 1 .186-.355.908.908 0 0 1 .557-.143 1.96 1.96 0 0 1 .743.151 4.171 4.171 0 0 1 .759.412l.661-.946a3.414 3.414 0 0 0-.978-.538 3.51 3.51 0 0 0-1.169-.187 2.567 2.567 0 0 0-.816.123 1.853 1.853 0 0 0-.637.35 1.612 1.612 0 0 0-.414.542 1.635 1.635 0 0 0-.147.7v.014a1.64 1.64 0 0 0 .136.71 1.3 1.3 0 0 0 .384.476 2.229 2.229 0 0 0 .6.322 7.235 7.235 0 0 0 .793.236q.363.09.59.171a1.878 1.878 0 0 1 .355.163.462.462 0 0 1 .174.176.5.5 0 0 1 .045.217v.016a.448.448 0 0 1-.219.4 1.122 1.122 0 0 1-.615.142 2.208 2.208 0 0 1-.912-.187 3.77 3.77 0 0 1-.813-.505L0 91.323a3.435 3.435 0 0 0 1.156.689 3.882 3.882 0 0 0 1.3.224 2.934 2.934 0 0 0 .857-.119 1.972 1.972 0 0 0 .666-.342 1.558 1.558 0 0 0 .434-.554 1.743 1.743 0 0 0 .156-.754v-.016a1.584 1.584 0 0 0-.119-.644 1.311 1.311 0 0 0-.355-.469" class="cls-1" transform="translate(0 -66.237)"/>
                        <path id="Fill-3" d="M62.686 92.237h1.224v-2.272h2.658v-1.174H63.91v-1.25h3.015v-1.174h-4.239z" class="cls-1" transform="translate(-48.011 -66.237)"/>
                        <path id="Fill-5" d="M92.548 91.089v-1.233h2.666v-1.15h-2.666v-1.19h3.029v-1.149H91.32v5.87h4.3v-1.148z" class="cls-1" transform="translate(-69.942 -66.237)"/>
                        <path id="Fill-8" d="M31.333 89.931h-1.077l.325-1.189a.569.569 0 0 1-.325-.52.539.539 0 1 1 1.077 0 .57.57 0 0 1-.324.52zm.023-3.564h-1.123l-2.373 5.87h1.24l.506-1.307h2.344l.506 1.307h1.274z" class="cls-1" transform="translate(-21.338 -66.237)"/>
                        <g id="face" transform="translate(4.384)">
                            <path id="Fill-10" d="M15.581 30.41l-2.564-2.55a1.858 1.858 0 0 0-.371 1.112 1.826 1.826 0 0 0 1.823 1.828 1.771 1.771 0 0 0 1.112-.386" class="cls-1" transform="translate(-9.856 -21.427)"/>
                            <g id="Group-17">
                                <path id="Fill-15" d="M3.267 3.562a8.154 8.154 0 0 1 5.769-2.353h.086v8.284zM9.02.38A8.994 8.994 0 0 0 2.4 3.265l-.279.3 7 7.1v1.273l-.028.028-1.8-1.834A3.256 3.256 0 0 1 2.419 6.3a3.041 3.041 0 0 1 .365-.725l-.776-.784-.146.252A8.612 8.612 0 0 0 .618 9.494a8.525 8.525 0 0 0 8.461 8.579h1.429V.382z" class="cls-1" transform="translate(-.618 -.38)"/>
                            </g>
                            <path id="Fill-18" d="M50 15.533a7.185 7.185 0 0 0-7.174-7.175v.858a6.316 6.316 0 0 1 0 12.632v.858A7.185 7.185 0 0 0 50 15.533" class="cls-1" transform="translate(-32.972 -6.49)"/>
                            <path id="Fill-20" d="M48.117 31.391l-.342 2.1h1.675l-.342-2.1a1.141 1.141 0 1 0-.992 0" class="cls-1" transform="translate(-36.529 -22.494)"/>
                            <path id="Fill-22" d="M47.717 15.963a.324.324 0 1 0 .162-.628.324.324 0 1 0-.162.628" class="cls-1" transform="translate(-36.529 -11.825)"/>
                            <path id="Fill-24" d="M55.95 20.074a.32.32 0 1 0 .412-.491.32.32 0 1 0-.412.491" class="cls-1" transform="translate(-42.93 -15.026)"/>
                            <path id="Fill-26" d="M61.439 28.328a.322.322 0 1 0 .577-.284.322.322 0 1 0-.577.284" class="cls-1" transform="translate(-47.198 -21.427)"/>
                            <path id="Fill-28" d="M47.717 59.912a.324.324 0 1 1 .162.628.324.324 0 1 1-.162-.628" class="cls-1" transform="translate(-36.529 -45.966)"/>
                            <path id="Fill-30" d="M55.95 54.409a.32.32 0 1 1 .412.49.32.32 0 1 1-.412-.49" class="cls-1" transform="translate(-42.93 -41.698)"/>
                            <path id="Fill-32" d="M61.439 47.547a.322.322 0 1 1 .577.285.322.322 0 1 1-.577-.285" class="cls-1" transform="translate(-47.198 -36.364)"/>
                            <path id="Fill-34" d="M64.188 37.937a.326.326 0 1 0 .652 0 .326.326 0 0 0-.652 0" class="cls-1" transform="translate(-49.331 -28.895)"/>
                        </g>
                    </g>
                </g>
            </g>
        </g>
    </g>
</svg>
