<svg xmlns="http://www.w3.org/2000/svg" width="19.2" height="18" viewBox="0 0 19.2 18">
    <defs>
        <style>
            .cls-1{fill:#888;fill-rule:evenodd}
        </style>
    </defs>
    <path id="metamask" d="M.972 0L0 2.9l.636 3.075-.412.325.6.468-.454.357.6.552-.384.262.879 1.028-1.3 4.163 1.225 4.19 4.395-1.163L8.117 18h2.919l2.542-1.889 4.232 1.209 1.226-4.191h.005l-1.308-4.164.878-1.028-.384-.261.606-.552-.454-.357.6-.47-.412-.325L19.2 2.9 18.227 0l-6.12 2.279H7.094zm10.97 10.224l2.5 1.193-3.5 1.022zm-7.183 1.19l2.5-1.19 1 2.216zm3.36 3.406l.434-.253h2.093l.409.266.138 1.547H7.977z" class="cls-1"/>
</svg>
